<svg xmlns="http://www.w3.org/2000/svg" width="793.701" height="793.701" viewBox="0 0 210 210"><g transform="translate(0 -87)"><path fill="#177bfd" d="M 25 18.701172 L 25 242.65039 L 248.94727 18.701172 L 25 18.701172 z M 775 544.75195 L 551.05078 768.70117 L 775 768.70117 L 775 544.75195 z " transform="matrix(.26458 0 0 .26458 0 87)"></path><g fill="#177bfd" stroke-width=".265" style="line-height:6.61458349px;-inkscape-font-specification:'Arial, Heavy';font-variant-ligatures:normal;font-variant-caps:normal;font-variant-numeric:normal;font-feature-settings:normal;text-align:start" aria-label="Be" font-family="Arial" font-size="10.583" font-weight="900" transform="matrix(9.2342 0 0 9.2342 497.17 -2702.088)"><path style="-inkscape-font-specification:'Arial, Heavy';font-variant-ligatures:normal;font-variant-caps:normal;font-variant-numeric:normal;font-feature-settings:normal;text-align:start" d="M-49.466359 309.46943h4.382161q1.09554 0 1.679484.5426.589111.54261.589111 1.34359 0 .6718-.418579 1.15239-.279053.32039-.816488.50642.816488.19638 1.198894.67697.387573.47542.387573 1.19889 0 .58911-.273885 1.05937-.273885.47025-.749308.74414-.294556.17053-.888835.24804-.790649.10336-1.049032.10336h-4.041096zm2.361612 2.9714h1.018026q.54777 0 .759644-.18604.217041-.1912.217041-.54777 0-.33073-.217041-.51676-.211874-.18604-.744141-.18604h-1.033529zm0 2.97656h1.193726q.604614 0 .852661-.21187.248047-.21705.248047-.57878 0-.3359-.248047-.53744-.242879-.2067-.857829-.2067h-1.188558zM-35.291515 314.82311h-4.216796c.03789.33762.129188.58911.273885.75448.203261.23771.468533.35656.795817.35656.206705 0 .403076-.0517.589111-.15503.113688-.0655.235989-.18088.366903-.34623l2.113986.0409c-.225076.56793-.741116 1.09775-1.188978 1.3389-.447863.23771-1.090373.35657-1.927531.35657-.726915 0-1.298801-.10163-1.715658-.30489-.416856-.20671-.763088-.53227-1.038696-.97669-.272163-.44786-.408244-.97324-.408244-1.57613 0-.85783.273885-1.55201.821656-2.08256.551215-.53054 1.310859-.79581 2.27893-.79581.785482 0 1.405599.11885 1.860352.35656.454753.23771.800985.58222 1.038696 1.03353.237711.45131.356567 1.0387.356567 1.76217zm-2.139404-1.00769c-.04134-.40652-.151583-.69763-.330729-.87333-.1757-.1757-.408244-.26355-.697632-.26355-.334174 0-.601169.13264-.800984.39791-.127469.16536-.208429.41168-.24288.73897z"></path></g><rect width="24.68" height="9.872" x="129.434" y="155.616" fill="#177bfd" ry="0"></rect></g></svg>