<svg xmlns="http://www.w3.org/2000/svg" width="793.701" height="793.701" viewBox="0 0 210 210"><g transform="translate(0 -87)"><path fill="#f26597" d="M 25 18.701172 L 25 242.65039 L 248.94727 18.701172 L 25 18.701172 z M 775 544.75195 L 551.05078 768.70117 L 775 768.70117 L 775 544.75195 z " transform="matrix(.26458 0 0 .26458 0 87)"></path><path fill="#f26597" d="m 105.82536,125.33123 c -10.537497,0 -20.499316,2.51192 -29.342822,6.94262 -1.152866,0.57761 -2.283042,1.18615 -3.396413,1.82834 -0.03295,0.0188 -0.06873,0.033 -0.102153,0.0565 -16.316235,9.44903 -28.225829,25.69212 -31.83036,44.82424 -0.372363,1.977 -0.663993,3.98442 -0.854599,6.01863 -0.09227,0.98876 -0.170882,1.98152 -0.218899,2.9822 -0.05225,1.05951 -0.07861,2.12232 -0.07861,3.19479 0,0.72246 0.03295,1.43682 0.05602,2.15372 0.458511,14.12895 5.384154,27.14702 13.427668,37.68433 0.723872,0.94832 1.475942,1.87335 2.249007,2.78048 0.01412,0.009 0.01412,0.0188 0.01883,0.0282 0.726273,0.85121 1.47693,1.67888 2.244818,2.49205 0.104506,0.11063 0.209012,0.22408 0.31446,0.33423 0.751317,0.78455 1.5233,1.54788 2.312088,2.29472 0.03295,0.0282 0.06355,0.0584 0.09603,0.089 0.856812,0.808 1.733913,1.59363 2.633045,2.3554 11.476645,9.72404 26.301639,15.61162 42.47316,15.61162 6.09438,0 11.99494,-0.84735 17.60266,-2.40747 0.0329,-0.009 0.0659,-0.0188 0.0998,-0.0282 1.21288,-0.33894 2.41216,-0.71276 3.59591,-1.11911 0.0923,-0.0283 0.18359,-0.064 0.27539,-0.0951 3.75089,-1.30651 7.34511,-2.93889 10.75536,-4.87141 0.0188,-0.0141 0.0377,-0.0141 0.056,-0.0235 16.47017,-9.35332 28.54679,-25.59198 32.25771,-44.76788 0.0141,-0.0763 0.0235,-0.15582 0.0377,-0.23208 0.17653,-0.92912 0.33376,-1.86422 0.47075,-2.80656 9.9e-4,-0.009 0,-0.0188 0,-0.0235 0,-0.0424 0.0141,-0.0833 0.0188,-0.12381 0.14075,-0.98862 0.26362,-1.97804 0.36012,-2.98003 0.0998,-1.03838 0.17936,-2.08448 0.22973,-3.13618 3.8e-4,-0.004 -2.4e-4,-0.0141 0,-0.0188 0.0522,-1.0558 0.0786,-2.11546 0.0786,-3.18397 0,-0.62238 -0.0282,-1.23816 -0.0424,-1.85654 -0.42697,-15.27296 -6.08251,-29.27278 -15.25136,-40.25659 -0.75663,-0.90648 -1.53685,-1.79027 -2.34019,-2.6547 -0.0141,-0.009 -0.0188,-0.0188 -0.0282,-0.0282 -0.0235,-0.0235 -0.0471,-0.0424 -0.0673,-0.0673 -0.79006,-0.84645 -1.60276,-1.67064 -2.43575,-2.47468 0,-0.003 -0.0141,-0.009 -0.0141,-0.0141 0,-0.004 -0.0141,-0.0141 -0.0235,-0.0188 -0.85244,-0.82193 -1.72657,-1.61886 -2.62208,-2.39443 -0.90313,-0.78219 -1.82905,-1.53996 -2.77403,-2.27296 -11.14359,-8.64401 -25.10457,-13.81143 -40.24794,-13.81143 z m 0,9.15919 c 12.03354,0 23.1785,3.74703 32.34023,10.107 l 3.04293,2.11249 -2.8824,2.3272 c -7.91543,6.39174 -16.51428,11.96123 -25.66655,16.60711 l -2.4335,1.23628 -1.27752,-2.41396 c -4.51877,-8.545 -9.469507,-16.81744 -14.861099,-24.7708 l -2.407509,-3.55045 4.22498,-0.74176 c 3.195732,-0.56141 6.501098,-0.91311 9.920438,-0.91311 z m -24.482283,5.47209 1.409801,2.00408 c 5.94204,8.44638 11.36842,17.27393 16.262241,26.42996 l 1.498721,2.80219 -2.98003,1.10828 c -13.782236,5.12322 -28.548951,8.2241 -43.93941,8.95531 l -3.695716,0.17324 0.86312,-3.59596 c 3.825172,-15.93851 14.304863,-29.2282 28.416671,-36.72786 z m 66.751573,13.29303 1.76992,2.17976 c 7.37971,9.09296 11.93149,20.54776 12.51653,33.04292 l 0.13464,2.88457 -2.88673,0.0188 c -11.75006,0.088 -23.18038,1.49783 -34.17512,4.06229 l -2.3619,0.5487 -0.86316,-2.2643 c -2.05873,-5.40035 -4.28858,-10.71705 -6.68446,-15.94124 l -1.11262,-2.42483 2.37705,-1.20809 c 10.43427,-5.29975 20.21367,-11.69771 29.12591,-19.10566 z m -43.36896,26.43002 1.08673,2.36843 c 2.13546,4.6504 4.14062,9.37814 5.99909,14.17795 l 1.0389,2.68506 -2.72197,0.94132 c -16.846018,5.81959 -32.395026,14.43526 -46.073509,25.31734 l -2.262094,1.79803 -1.707033,-2.33153 c -6.385297,-8.72878 -10.312292,-19.3617 -10.824845,-30.90439 l -0.123336,-2.80223 2.802185,-0.0951 c 17.696663,-0.60825 34.63184,-4.17084 50.352722,-10.21974 z m 57.01995,21.22469 -0.82852,3.48106 c -3.22219,13.5598 -11.26881,25.19542 -22.26788,33.00605 l -3.48972,2.47681 -0.83939,-4.19678 c -1.89095,-9.4448 -4.2801,-18.70388 -7.14857,-27.75518 l -0.91744,-2.8976 2.96699,-0.65284 c 9.34429,-2.0576 19.02262,-3.22233 28.94589,-3.39862 z m -45.75255,6.99247 0.86105,2.70456 c 3.26789,10.24285 5.90941,20.76515 7.86439,31.53341 l 0.44015,2.41612 -2.34462,0.73093 c -5.36344,1.67314 -11.0701,2.57449 -16.98884,2.57449 -13.074369,0 -25.085597,-4.43889 -34.65434,-11.83126 l -2.832596,-2.19064 2.826099,-2.19703 c 12.566714,-9.77253 26.769471,-17.54005 42.143497,-22.81885 z" font-family="sans-serif" font-weight="400" style="line-height:normal;font-variant-ligatures:normal;font-variant-position:normal;font-variant-caps:normal;font-variant-numeric:normal;font-variant-alternates:normal;font-feature-settings:normal;text-indent:0;text-align:start;text-decoration-line:none;text-decoration-style:solid;text-decoration-color:#000;text-transform:none;text-orientation:mixed;shape-padding:0;isolation:auto;mix-blend-mode:normal"></path></g></svg>