<svg xmlns="http://www.w3.org/2000/svg" width="793.701" height="793.701" viewBox="0 0 210 210"><g transform="translate(0 -87)"><path fill="#3c5b9b" d="M 25 18.701172 L 25 242.65039 L 248.94727 18.701172 L 25 18.701172 z M 775 544.75195 L 551.05078 768.70117 L 775 768.70117 L 775 544.75195 z " transform="matrix(.26458 0 0 .26458 0 87)"></path><path fill="#3c5b9b" fill-rule="evenodd" d="m 128.16718,124.30933 c -8.31764,0.0887 -18.42992,0.61547 -24.79726,4.76702 -4.163663,2.81201 -7.441897,7.11379 -9.51526,11.69034 -2.030856,4.48273 -2.051267,9.65408 -2.463416,14.55804 v 17.6515 H 70.530422 v 24.07017 h 20.860822 v 60.9778 h 25.674836 v -60.9778 h 19.25614 l 3.20935,-24.07017 h -22.46549 c -0.0418,-3.75718 0.29282,-6.43974 0,-9.78787 v -8.0234 c 0,-4.44502 3.57841,-8.0234 8.0234,-8.0234 h 9.62807 c 0.55016,0 1.08625,0.0547 1.60467,0.16024 0.51842,-0.10559 1.05454,-0.16024 1.60467,-0.16024 h 3.20935 v -22.30568 c 0,0 -6.3046,-0.46758 -12.96906,-0.52642 z"></path></g></svg>