<svg xmlns="http://www.w3.org/2000/svg" width="793.701" height="793.701" viewBox="0 0 210 210"><g transform="translate(0 -87)"><path fill="#f98b02" d="M 25 18.701172 L 25 242.65039 L 248.94727 18.701172 L 25 18.701172 z M 775 544.75195 L 551.05078 768.70117 L 775 768.70117 L 775 544.75195 z " transform="matrix(.26458 0 0 .26458 0 87)"></path><g fill="#f98b02" transform="matrix(4.81756 0 0 4.81756 369.647 -1132.025)"><path style="line-height:normal;font-variant-ligatures:normal;font-variant-position:normal;font-variant-caps:normal;font-variant-numeric:normal;font-variant-alternates:normal;font-feature-settings:normal;text-indent:0;text-align:start;text-decoration-line:none;text-decoration-style:solid;text-decoration-color:#000;text-transform:none;text-orientation:mixed;shape-padding:0;isolation:auto;mix-blend-mode:normal" d="m -68.202851,261.21826 v 5.24759 c 11.97932,4.2e-4 21.636058,9.65716 21.636472,21.63647 h 5.24759 c -4.18e-4,-14.81583 -12.068228,-26.88365 -26.884062,-26.88406 z" font-family="sans-serif" font-weight="400"></path><path style="line-height:normal;font-variant-ligatures:normal;font-variant-position:normal;font-variant-caps:normal;font-variant-numeric:normal;font-variant-alternates:normal;font-feature-settings:normal;text-indent:0;text-align:start;text-decoration-line:none;text-decoration-style:solid;text-decoration-color:#000;text-transform:none;text-orientation:mixed;shape-padding:0;isolation:auto;mix-blend-mode:normal" d="m -68.202851,270.69997 v 4.965 c 6.897739,4.2e-4 12.43693,5.53961 12.437344,12.43735 h 4.965008 c -4.18e-4,-9.58049 -7.82186,-17.40194 -17.402352,-17.40235 z" font-family="sans-serif" font-weight="400"></path><circle cx="-64.648" cy="284.547" r="3.555"></circle></g></g></svg>