<svg xmlns="http://www.w3.org/2000/svg" width="793.701" height="793.701" viewBox="0 0 210 210"><g transform="translate(0 -87)"><path fill="#d13f2d" d="M 25 18.701172 L 25 242.65039 L 248.94727 18.701172 L 25 18.701172 z M 775 544.75195 L 551.05078 768.70117 L 775 768.70117 L 775 544.75195 z " transform="matrix(.26458 0 0 .26458 0 87)"></path><path fill="#d13f2d" d="m 95.596099,123.67271 c -37.275941,8e-5 -67.494032,30.21817 -67.494064,67.49405 3.2e-5,37.27595 30.218123,67.49404 67.494064,67.49407 35.093361,0 60.808441,-21.11111 63.699931,-54.15563 0.45303,-6.33065 0.73592,-9.31622 0.6544,-13.33844 -0.0113,-1.92116 -0.10938,-3.84091 -0.28692,-5.75396 h -14.69732 -0.003 -48.494331 v 19.0924 h 45.259721 c -4.86084,27.22645 -27.3811,35.90365 -46.130371,36.39391 -27.466439,-8e-5 -49.732298,-22.26594 -49.732411,-49.73235 1.13e-4,-27.46642 22.265972,-49.73228 49.732411,-49.73236 12.702401,0.0242 24.914941,4.90391 34.132551,13.64406 l 12.59172,-12.59145 C 129.7593,130.42126 113.0176,123.67987 95.598639,123.67271 Z"></path><path fill="#d13f2d" d="m 165.82134,153.93526 v 11.77119 h -11.77119 v 5.97303 h 11.77119 v 11.77027 h 5.97307 v -11.77027 h 11.77022 v -5.97303 h -11.77022 v -11.77119 z"></path></g></svg>