<svg xmlns="http://www.w3.org/2000/svg" width="793.701" height="793.701" viewBox="0 0 210 210"><g transform="translate(0 -87)"><path fill="#a47f62" d="M 25 18.701172 L 25 242.65039 L 248.94727 18.701172 L 25 18.701172 z M 775 544.75195 L 551.05078 768.70117 L 775 768.70117 L 775 544.75195 z " transform="matrix(.26458 0 0 .26458 0 87)"></path><path fill="#a47f62" d="m 74.297872,125.29625 c -18.916801,0 -34.336096,15.4151 -34.336096,34.33189 v 15.30165 47.77352 c 0,18.91679 15.419295,34.33397 34.336096,34.33397 h 63.073088 c 18.9168,0 34.33393,-15.41718 34.33393,-34.33397 v -47.77352 -15.30165 c 0,-18.91679 -15.41713,-34.33189 -34.33393,-34.33189 z m 64.981558,21.15777 a 11.364333,11.364333 0 0 1 11.36463,11.36463 11.364333,11.364333 0 0 1 -11.36463,11.3646 11.364333,11.364333 0 0 1 -11.36456,-11.3646 11.364333,11.364333 0 0 1 11.36456,-11.36463 z m -35.24606,14.62339 c -0.17447,0.009 -0.3469,0.0245 -0.52031,0.0408 0.17365,-0.0122 0.34608,-0.0285 0.52031,-0.0408 z m 3.61054,0 c 0.17446,0.009 0.34689,0.0245 0.52029,0.0408 -0.17364,-0.0122 -0.34607,-0.0285 -0.52029,-0.0408 z m -5.42847,0.16631 c -0.18018,0.0204 -0.36035,0.0444 -0.53926,0.0693 0.17936,-0.0245 0.35912,-0.0477 0.53926,-0.0693 z m 7.24427,0 c 0.18221,0.0204 0.36442,0.0444 0.54558,0.0693 -0.1814,-0.0245 -0.3632,-0.0477 -0.54558,-0.0693 z m -9.17804,0.29717 c -0.12189,0.0244 -0.245,0.0432 -0.366472,0.0672 0.121472,-0.0244 0.244582,-0.0444 0.366472,-0.0672 z m 11.1055,0 c 0.12474,0.0244 0.25069,0.0423 0.37502,0.0672 -0.12392,-0.0244 -0.25028,-0.0441 -0.37502,-0.0672 z m -13.174087,0.45928 c -0.110471,0.0285 -0.218902,0.0624 -0.328553,0.0925 0.110061,-0.0285 0.218082,-0.0636 0.328553,-0.0925 z m 15.251067,0 c 0.11454,0.0285 0.22705,0.0656 0.34119,0.097 -0.11414,-0.0326 -0.22665,-0.0668 -0.34119,-0.097 z m 1.69156,0.50135 c 0.15979,0.0522 0.31755,0.10762 0.47607,0.16224 -0.15857,-0.0546 -0.31632,-0.11006 -0.47607,-0.16224 z m -18.651027,0.009 c -0.145935,0.0477 -0.291049,0.0974 -0.436049,0.14756 0.145124,-0.0502 0.289828,-0.0995 0.436049,-0.14756 z m 20.342587,0.60676 c 0.14104,0.0559 0.2833,0.10884 0.42341,0.16632 -0.13982,-0.0575 -0.28249,-0.11088 -0.42341,-0.16632 z m -22.050938,0.0122 c -0.124736,0.0493 -0.251103,0.0966 -0.375029,0.14757 0.123926,-0.0509 0.249883,-0.0978 0.375029,-0.14757 z m 25.655158,1.68953 c 0.053,0.0285 0.10517,0.0607 0.15816,0.0905 -0.0525,-0.0285 -0.10517,-0.0611 -0.15816,-0.0905 z m -29.244665,0.009 c -0.03671,0.0204 -0.07295,0.0423 -0.109651,0.0631 0.03671,-0.0204 0.07257,-0.0423 0.109651,-0.0631 z m 30.797145,0.92264 c 0.0599,0.0367 0.11943,0.077 0.17894,0.11576 -0.0595,-0.0408 -0.11902,-0.0774 -0.17894,-0.11576 z m -32.349663,0.0122 c -0.04854,0.0326 -0.09702,0.0615 -0.145524,0.0925 0.04806,-0.0326 0.09702,-0.0615 0.145524,-0.0925 z m 16.184353,1.75047 c 13.10344,0 23.65183,10.55895 23.65188,23.66239 0,13.10361 -10.54844,23.65192 -23.65188,23.65192 -13.103537,0 -23.662444,-10.54831 -23.662444,-23.65192 0,-13.10344 10.558907,-23.66239 23.662444,-23.66239 z m -59.376173,7.4255 h 33.996901 c -3.014456,4.6922 -4.773317,10.26342 -4.773317,16.23689 0,16.61318 13.539483,30.14206 30.152589,30.14206 16.61305,0 30.14202,-13.52888 30.14198,-30.14206 0,-5.97347 -1.75621,-11.54469 -4.76916,-16.23689 h 33.99698 v 47.77476 c 0,15.4184 -12.41283,27.83119 -27.83123,27.83119 H 74.293629 c -15.418313,0 -27.831142,-12.41279 -27.831142,-27.83119 z" font-family="sans-serif" font-weight="400" style="line-height:normal;font-variant-ligatures:normal;font-variant-position:normal;font-variant-caps:normal;font-variant-numeric:normal;font-variant-alternates:normal;font-feature-settings:normal;text-indent:0;text-align:start;text-decoration-line:none;text-decoration-style:solid;text-decoration-color:#000;text-transform:none;text-orientation:mixed;shape-padding:0;isolation:auto;mix-blend-mode:normal"></path></g></svg>