<svg xmlns="http://www.w3.org/2000/svg" width="793.701" height="793.701" viewBox="0 0 210 210"><g transform="translate(0 -87)"><path fill="#1681c5" d="M 25 18.701172 L 25 242.65039 L 248.94727 18.701172 L 25 18.701172 z M 775 544.75195 L 551.05078 768.70117 L 775 768.70117 L 775 544.75195 z " transform="matrix(.26458 0 0 .26458 0 87)"></path><g fill="#1681c5" transform="translate(892.074 -7285.51) scale(24.93188)"><path style="line-height:4.59712553px;-inkscape-font-specification:'Aharoni, Bold';font-variant-ligatures:normal;font-variant-caps:normal;font-variant-numeric:normal;font-feature-settings:normal;text-align:start" d="M-32.827099 298.03805q0 .28014-.193941.47408-.19035.19035-.470487.19035-.276546 0-.470487-.19394-.19035-.19394-.19035-.47049 0-.27654.19035-.46689.193941-.19394.470487-.19394.276546 0 .470487.19394.193941.19035.193941.46689zM-32.902519 302.39124h-1.178014v-3.33292h1.178014zM-28.918714 302.39124h-1.178014v-1.68801q0-.44176-.100562-.58542-.147251-.2119-.441755-.2119-.269363 0-.452529.18317-.165209.16521-.165209.51718v1.78498h-1.178014v-3.33292h1.178014v.42021q.204715-.23704.377108-.33401.280137-.15803.700343-.15803.538726 0 .876327.29091.384291.33042.384291.99126z" font-family="Aharoni" font-size="7.355" font-weight="700"></path></g></g></svg>