<svg xmlns="http://www.w3.org/2000/svg" width="793.701" height="793.701" viewBox="0 0 210 210"><g transform="translate(0 -87)"><path fill="#9ca3ab" d="M 25 18.701172 L 25 242.65039 L 248.94727 18.701172 L 25 18.701172 z M 775 544.75195 L 551.05078 768.70117 L 775 768.70117 L 775 544.75195 z " transform="matrix(.26458 0 0 .26458 0 87)"></path><path fill="#fff" d="m 105.51849,123.79772 c -0.39015,-0.002 -0.76985,0.008 -1.1549,0.011 -3.95437,-0.008 -7.672098,0.18686 -10.191393,0.66456 -3.442225,0.6528 -6.235781,1.39257 -7.648758,1.98224 -1.807484,0.56289 -3.546418,1.15124 -4.602546,1.58088 l -3.231742,1.31582 0.03298,0.0964 c -0.480266,0.22422 -0.957539,0.45851 -1.433155,0.69672 0.0025,-0.011 0.160103,-0.44762 0.159004,-0.44682 -0.03704,0.0293 -1.69369,0.99769 -3.682376,2.15077 -2.350331,1.3626 -4.588914,2.85016 -6.72298,4.43969 -0.17146,0.033 -0.80388,0.54109 -1.618763,1.24958 -3.725015,2.94875 -7.083845,6.23702 -10.06268,9.79571 l -2.434746,2.4177 0.390042,0.14399 c -0.420884,0.55472 -0.837116,1.11306 -1.240121,1.67935 -0.0076,0.011 -0.01463,0.022 -0.02199,0.033 -0.319107,0.44877 -0.637071,0.89802 -0.944719,1.35371 -0.443158,0.64426 -0.878697,1.31028 -1.30068,1.98791 -0.196374,0.31544 -0.391065,0.65291 -0.586889,0.9807 l -2.385536,3.63317 0.348418,0.008 c -0.160831,0.30627 -0.325331,0.61095 -0.480893,0.92006 -0.0872,0.17072 -0.169261,0.31984 -0.257558,0.49411 -0.1656,0.32754 -0.318743,0.66394 -0.47899,0.99587 -0.03704,0.0784 -0.07476,0.15644 -0.111747,0.23484 -1.017109,2.13216 -1.912364,4.34851 -2.696033,6.62077 -0.427844,0.79967 -0.859501,2.45701 -1.580844,5.28223 -0.02562,0.10258 -0.04431,0.20589 -0.07002,0.30847 -0.04837,0.19381 -0.108805,0.38298 -0.155334,0.57744 -0.118707,0.49482 -0.223486,0.9936 -0.331199,1.49193 -0.01835,0.0846 -0.03298,0.17073 -0.05091,0.25572 -0.02562,0.12383 -0.05937,0.2473 -0.08536,0.37106 l -0.136289,-0.33706 -0.691042,4.94899 c -0.270015,1.93245 -0.435505,3.88614 -0.532005,5.84831 -1.1e-4,0.003 1.44e-4,0.003 0,0.008 -1.86e-4,0.003 1.77e-4,0.008 0,0.011 -0.0076,0.14251 -0.02199,0.28357 -0.02934,0.42598 -0.0034,0.0879 -0.0076,0.17549 -0.01099,0.26305 -0.01835,0.43693 -0.02199,0.87455 -0.03298,1.31204 -8.46e-4,0.0663 -0.0034,0.13263 -0.0076,0.19893 -8.46e-4,0.0619 -0.0025,0.12384 -0.0034,0.18539 -0.0017,0.11358 -0.0076,0.22715 -0.0076,0.34073 -8.46e-4,0.0688 -8.46e-4,0.13738 -0.0017,0.20625 -8.46e-4,0.0927 -0.0025,0.18539 -0.0034,0.27845 -4.4e-4,0.11614 0.0017,0.23227 0.0017,0.34842 -1.86e-4,0.11614 -0.0017,0.23227 -0.0017,0.34842 6.93e-4,0.0927 0.0025,0.18574 0.0034,0.27843 7.35e-4,0.0688 8.45e-4,0.13739 0.0017,0.20626 8.46e-4,0.11358 0.0076,0.22716 0.0076,0.34073 8.46e-4,0.0619 0.0017,0.12384 0.0034,0.18539 8.45e-4,0.0663 0.0034,0.13262 0.0076,0.19893 0.0076,0.43744 0.01463,0.87515 0.03298,1.31204 0.0034,0.0876 0.0076,0.17513 0.01099,0.26305 0.0076,0.14253 0.02199,0.28358 0.02934,0.42605 1.77e-4,0.003 -1.52e-4,0.008 0,0.011 1.44e-4,0.003 -1.1e-4,0.003 0,0.008 0.09635,1.96217 0.261947,3.9159 0.532005,5.84831 l 0.691042,4.94901 0.136289,-0.33705 c 0.02562,0.12384 0.05861,0.2473 0.08536,0.37109 0.01835,0.085 0.03298,0.17074 0.05091,0.25573 0.107713,0.4983 0.212492,0.99715 0.331199,1.49189 0.04693,0.19564 0.106614,0.3863 0.155334,0.58124 0.02562,0.10149 0.04398,0.20334 0.07002,0.30482 0.721343,2.82518 1.153,4.48252 1.580844,5.2822 0.783702,2.27236 1.67889,4.48852 2.696033,6.62076 0.03662,0.0784 0.07476,0.15644 0.111747,0.23484 0.160103,0.33193 0.313246,0.66818 0.47899,0.9959 0.08793,0.17439 0.170361,0.3235 0.257558,0.49413 0.155342,0.30921 0.320206,0.61369 0.480893,0.92009 l -0.348418,0.008 2.385536,3.63317 c 0.195646,0.3279 0.390515,0.66532 0.586889,0.98073 0.421983,0.67763 0.857522,1.34366 1.30068,1.98792 0.307758,0.45572 0.625765,0.90489 0.944719,1.3537 0.0076,0.011 0.01463,0.022 0.02199,0.033 0.403005,0.56625 0.819237,1.1246 1.240079,1.67935 l -0.39,0.14399 2.434746,2.4177 c 2.978835,3.55861 6.337665,6.84689 10.06268,9.79568 0.814883,0.70841 1.447379,1.21784 1.618729,1.24961 2.1341,1.58956 4.372683,3.07713 6.723014,4.43966 1.988686,1.15311 3.645226,2.12109 3.682376,2.15077 8.46e-4,8e-4 -0.154242,-0.43668 -0.157177,-0.44679 0.475184,0.23813 0.951349,0.47287 1.431328,0.69672 l -0.03298,0.0971 3.231776,1.31577 c 1.05606,0.42968 2.79507,1.01803 4.602546,1.58081 1.412977,0.58978 4.206431,1.3296 7.648724,1.98235 2.519329,0.47771 6.237023,0.67196 10.191423,0.66448 0.38491,0 0.76472,0.0146 1.15491,0.011 0.10258,0 0.21139,-0.011 0.31434,-0.011 0.10295,0 0.21177,0.011 0.31435,0.011 0.39033,0 0.76988,-0.011 1.1549,-0.011 3.95458,0.011 7.67194,-0.18685 10.19147,-0.66448 3.44661,-0.6536 6.24515,-1.39411 7.65633,-1.98418 1.80466,-0.56219 3.54216,-1.14992 4.59687,-1.57898 l 3.23178,-1.31577 -0.033,-0.0971 c 0.48005,-0.22422 0.95596,-0.45851 1.43129,-0.69672 -0.003,0.011 -0.1601,0.44759 -0.159,0.44679 0.037,-0.0294 1.69559,-0.99766 3.68428,-2.15077 2.34996,-1.36235 4.5873,-2.85039 6.72111,-4.43966 0.17109,-0.0294 0.80802,-0.54391 1.63008,-1.2591 3.71498,-2.94198 7.06557,-6.22222 10.03807,-9.77106 l 2.448,-2.43283 -0.39,-0.14399 c 0.42254,-0.55691 0.83932,-1.11643 1.24382,-1.68507 0.32864,-0.46199 0.65833,-0.92387 0.97505,-1.39337 0.43488,-0.63265 0.86167,-1.28713 1.27607,-1.95198 0.003,-0.008 0.011,-0.0146 0.0146,-0.022 0.003,-0.008 0.008,-0.0146 0.0146,-0.022 0.1982,-0.31874 0.39516,-0.65854 0.59256,-0.99018 l 2.3666,-3.60287 -0.35025,-0.008 c 0.17182,-0.32864 0.34878,-0.65493 0.515,-0.98638 0.0754,-0.14801 0.14692,-0.27698 0.22349,-0.42788 0.14361,-0.28393 0.27514,-0.5763 0.41462,-0.86335 0.0667,-0.14032 0.13482,-0.27954 0.20077,-0.4203 1.00568,-2.11347 1.8909,-4.30948 2.6676,-6.56016 0.42938,-0.79634 0.86277,-2.45485 1.58659,-5.28981 0.0293,-0.11725 0.0524,-0.23485 0.0814,-0.35208 0.0443,-0.17916 0.0989,-0.35428 0.14215,-0.53392 0.11871,-0.49478 0.22348,-0.99359 0.3312,-1.49185 0.0183,-0.0854 0.033,-0.17219 0.0509,-0.25755 0.0256,-0.12384 0.0594,-0.2473 0.0854,-0.37113 l 0.13812,0.33888 0.69105,-4.94898 c 0.27331,-1.95487 0.43825,-3.93135 0.5339,-5.91649 0.008,-0.12383 0.0184,-0.24693 0.0256,-0.37105 0.003,-0.089 0.008,-0.17806 0.011,-0.26709 0.0184,-0.42939 0.022,-0.85943 0.033,-1.28929 8.5e-4,-0.0436 0.003,-0.0872 0.003,-0.13079 8.5e-4,-0.0479 7.7e-4,-0.096 0.002,-0.14399 0.003,-0.17036 0.011,-0.34072 0.0146,-0.51119 8.4e-4,-0.0953 8.4e-4,-0.19051 0.002,-0.28577 8.4e-4,-0.0784 0.003,-0.15643 0.003,-0.23484 3.3e-4,-0.0912 -0.002,-0.18319 -0.002,-0.27441 1.5e-4,-0.0912 0.002,-0.18318 0.002,-0.27441 -5.5e-4,-0.0784 -0.003,-0.15644 -0.003,-0.23485 -8.4e-4,-0.0952 -7e-4,-0.1905 -0.002,-0.28576 -0.002,-0.17073 -0.011,-0.34073 -0.0146,-0.5112 -8.5e-4,-0.048 -8.1e-4,-0.096 -0.002,-0.14397 -8.4e-4,-0.0436 -0.003,-0.0872 -0.003,-0.1308 -0.008,-0.42989 -0.0146,-0.85994 -0.033,-1.28933 -0.003,-0.089 -0.008,-0.17768 -0.011,-0.26708 -0.008,-0.1242 -0.0183,-0.24693 -0.0256,-0.3711 -0.0956,-1.98509 -0.26085,-3.96161 -0.5339,-5.91645 l -0.69105,-4.94902 -0.13812,0.3389 c -0.0256,-0.12384 -0.0589,-0.2473 -0.0854,-0.37107 -0.0184,-0.0854 -0.033,-0.17218 -0.0509,-0.25755 -0.10772,-0.4983 -0.21249,-0.99711 -0.3312,-1.49189 -0.0432,-0.17952 -0.0975,-0.35501 -0.14215,-0.53391 -0.0293,-0.11723 -0.0512,-0.23484 -0.0814,-0.35208 -0.72382,-2.83489 -1.15721,-4.49337 -1.58659,-5.28975 -0.7767,-2.25071 -1.66192,-4.44672 -2.6676,-6.56016 -0.0656,-0.14068 -0.13409,-0.2799 -0.20077,-0.4203 -0.13923,-0.28723 -0.27112,-0.5794 -0.41462,-0.8633 -0.0762,-0.15095 -0.14765,-0.27991 -0.22349,-0.42789 -0.16633,-0.33156 -0.34292,-0.65782 -0.515,-0.98641 l 0.35025,-0.008 -2.3666,-3.60291 c -0.19747,-0.33156 -0.39421,-0.67126 -0.59256,-0.99015 l -0.0146,-0.022 c -0.003,-0.008 -0.011,-0.0146 -0.0146,-0.022 -0.4144,-0.66481 -0.84119,-1.31933 -1.27607,-1.95198 -0.3169,-0.46942 -0.64624,-0.93142 -0.97505,-1.39344 -0.40406,-0.56791 -0.82177,-1.12868 -1.24382,-1.68501 l 0.39,-0.14398 -2.448,-2.43283 c -2.9725,-3.54891 -6.32309,-6.82908 -10.03807,-9.77114 -0.82206,-0.71519 -1.45917,-1.22971 -1.63008,-1.25902 -2.13381,-1.58928 -4.37115,-3.07731 -6.72111,-4.4397 -1.98869,-1.15307 -3.64713,-2.12145 -3.68428,-2.15076 -8.5e-4,-8.1e-4 0.15607,0.43671 0.159,0.44682 -0.47539,-0.23814 -0.9512,-0.47262 -1.43129,-0.69669 l 0.033,-0.0967 -3.23178,-1.31585 c -1.05471,-0.42905 -2.79221,-1.01674 -4.59687,-1.57897 -1.41118,-0.59 -4.20972,-1.33047 -7.65633,-1.98415 -2.51953,-0.47763 -6.23689,-0.67203 -10.19147,-0.66452 -0.38502,-0.003 -0.76457,-0.0146 -1.1549,-0.011 -0.10258,5.5e-4 -0.2114,0.008 -0.31435,0.008 -0.10295,-8.5e-4 -0.21176,-0.008 -0.31434,-0.008 z"></path><path fill="#9ca3ab" d="m 105.51933,123.79713 c -10.760946,-0.0517 -19.44513,2.02701 -29.104297,6.87392 -10.358785,5.19811 -19.32559,13.28131 -25.992002,23.43156 l -3.586384,5.46062 17.280742,0.30151 c 16.220538,0.28285 17.333563,0.37264 18.135693,1.47065 1.204104,1.6481 1.061439,3.74626 -0.350616,5.15836 -0.989963,0.98996 -2.008729,1.20509 -5.703816,1.20509 -5.318205,0 -6.128978,0.77092 -5.465124,5.19786 0.458736,3.05849 19.487122,57.80846 19.930433,57.3451 0.08976,-0.0938 4.135127,-10.33222 8.990216,-22.75299 l 8.827615,-22.58327 -1.29859,-3.63149 c -1.63929,-4.58499 -3.74155,-8.25605 -6.43692,-11.23957 -1.659061,-1.83631 -2.545936,-2.33564 -4.149165,-2.33564 -3.745751,0 -5.843219,-4.09054 -3.452294,-6.7325 0.93091,-1.02862 2.436945,-1.1016 22.598869,-1.1016 20.79811,0 21.64606,0.0443 22.80646,1.20514 1.61225,1.61224 1.51952,3.35659 -0.27367,5.14997 -1.3138,1.31391 -1.99642,1.47899 -6.11019,1.47899 -8.85257,0 -8.81535,0.36234 3.62653,35.2545 8.54387,23.96081 9.96564,27.51697 10.48134,26.21471 0.32827,-0.82862 4.14323,-10.786 8.47766,-22.12731 7.75794,-20.29947 7.87173,-20.66771 7.30752,-23.64311 -0.72061,-3.79946 -2.3689,-7.08274 -6.09355,-12.13966 -3.89333,-5.28593 -5.33309,-8.61281 -5.34921,-12.35897 -0.0183,-4.09051 1.78528,-6.7971 5.42717,-8.14746 l 2.69515,-0.99916 -6.32777,-6.28385 c -12.97195,-12.88215 -26.19625,-18.83971 -43.48208,-19.58802 -1.16106,-0.0502 -2.29621,-0.0781 -3.40939,-0.0836 z M 43.864814,168.2406 c -0.03298,-0.002 -0.06157,-0.002 -0.09196,5.5e-4 -0.70519,0.0743 -1.141829,1.75677 -2.193711,5.8764 -7.627901,29.87573 5.422773,60.83203 32.187475,76.34921 1.988729,1.15303 3.64614,2.12065 3.683222,2.15018 0.03704,0.0293 -2.568361,-7.33573 -5.790091,-16.36775 -3.221738,-9.03205 -9.038282,-25.37147 -12.925607,-36.30934 -7.670439,-21.58227 -9.594422,-26.05245 -12.852761,-29.85902 -0.953844,-1.11442 -1.548462,-1.8007 -2.016678,-1.84023 z m 127.051966,8.54324 -2.98015,7.35983 c -1.63899,4.04772 -7.59533,19.42729 -13.23632,34.17687 -5.64094,14.74956 -10.37824,27.02086 -10.52713,27.26948 -0.14874,0.2484 0.0396,0.45214 0.41858,0.45214 0.37904,0 3.60019,-2.91567 7.15782,-6.4788 6.76529,-6.77562 9.65939,-10.69283 13.47009,-18.22981 5.93983,-11.7482 8.26587,-26.16522 6.38841,-39.60069 z m -60.26799,14.03665 c -0.2015,-0.2015 -25.142359,63.66614 -25.134883,64.36484 0.0076,0.58414 3.693074,1.71567 8.658357,2.65738 6.547636,1.24166 21.031226,0.7501 27.361486,-0.92842 2.73887,-0.72624 6.43461,-1.91204 8.21201,-2.63517 l 3.23193,-1.31476 -11.06874,-30.97622 c -6.0878,-17.03692 -11.15494,-31.06236 -11.26016,-31.16765 z"></path></g></svg>